<svg xmlns="http://www.w3.org/2000/svg" version="1.1" xmlns:xlink="http://www.w3.org/1999/xlink" xmlns:svgjs="http://svgjs.dev/svgjs" width="1500" height="980" viewBox="0 0 1500 980"><g transform="matrix(1,0,0,1,0.44415313280205737,0.3967611336032064)"><svg viewBox="0 0 378 247" data-background-color="#ffffff" preserveAspectRatio="xMidYMid meet" height="980" width="1500" xmlns="http://www.w3.org/2000/svg" xmlns:xlink="http://www.w3.org/1999/xlink"><g id="tight-bounds" transform="matrix(1,0,0,1,-0.11192658946612255,-0.09999999999999432)"><svg viewBox="0 0 378.22385317893225 247.2" height="247.2" width="378.22385317893225"><g><svg viewBox="0 0 395.52 258.50443640249523" height="247.2" width="378.22385317893225"><g transform="matrix(1,0,0,1,0,156.1237777097448)"><svg viewBox="0 0 395.52 102.38065869275047" height="102.38065869275047" width="395.52"><g id="textblocktransform"><svg viewBox="0 0 395.52 102.38065869275047" height="102.38065869275047" width="395.52" id="textblock"><g><svg viewBox="0 0 395.52 61.987272727272725" height="61.987272727272725" width="395.52"><g transform="matrix(1,0,0,1,0,0)"><svg width="395.52" viewBox="3.53 -32.5 211.18 33.099999999999994" height="61.987272727272725" data-palette-color="#e65a41"><path d="M15.25 0.6L15.25 0.6Q9.25 0.6 6.39-2.49 3.53-5.58 3.53-11.48L3.53-11.48 3.53-31.95 7.68-31.95 7.68-11.38Q7.68-7.28 9.47-5.11 11.28-2.95 15.25-2.95L15.25-2.95Q19.25-2.95 21.04-5.11 22.83-7.28 22.83-11.38L22.83-11.38 22.83-31.95 26.98-31.95 26.98-11.48Q26.98-5.58 24.13-2.49 21.28 0.6 15.25 0.6ZM45.85 0L41.7 0 41.7-31.28 45.85-31.28 45.85 0ZM55.42-28.48L32.12-28.48 32.12-31.95 55.42-31.95 55.42-28.48ZM69.72 0.58L69.72 0.58Q67.42 0.58 65.51 0.2 63.59-0.18 62.09-0.73 60.59-1.28 59.59-1.83L59.59-1.83 59.17-5.95Q61.09-4.8 63.71-3.94 66.32-3.08 69.4-3.08L69.4-3.08Q73.09-3.08 74.87-4.39 76.65-5.7 76.65-8.33L76.65-8.33 76.65-8.72Q76.65-10.45 75.95-11.55 75.25-12.65 73.58-13.4 71.92-14.15 69.07-14.8L69.07-14.8Q65.47-15.65 63.31-16.81 61.15-17.98 60.18-19.73 59.22-21.48 59.22-24.08L59.22-24.08 59.22-24.3Q59.22-28.23 61.8-30.36 64.37-32.5 69.59-32.5L69.59-32.5Q73.02-32.5 75.43-31.8 77.84-31.1 79.37-30.25L79.37-30.25 79.75-26.45Q77.97-27.5 75.61-28.24 73.25-28.98 70.2-28.98L70.2-28.98Q67.77-28.98 66.27-28.4 64.77-27.83 64.09-26.75 63.42-25.68 63.42-24.15L63.42-24.15 63.42-24.05Q63.42-22.5 64.08-21.4 64.75-20.3 66.41-19.5 68.07-18.7 71.15-17.95L71.15-17.95Q74.67-17.13 76.8-16.05 78.92-14.98 79.88-13.25 80.84-11.53 80.84-8.75L80.84-8.75 80.84-8.22Q80.84-3.9 78.06-1.66 75.27 0.58 69.72 0.58ZM101.94 0L97.92 0 99.14-31.95 105.57-31.95 113.14-8.85 113.49-8.85 121.07-31.95 127.52-31.95 128.74 0 124.72 0 124.27-13.48 123.84-27.63 123.39-27.63 115.49-3.68 111.17-3.68 103.27-27.63 102.82-27.63 102.37-13.45 101.94 0ZM137.41 0L133.21 0 143.21-31.95 149.76-31.95 159.79 0 155.59 0 146.81-29.15 146.19-29.15 137.41 0ZM153.76-9.43L139.21-9.43 139.21-12.88 153.76-12.88 153.76-9.43ZM187.69 0L183.41 0 182.51-6.55Q182.26-8.4 181.66-9.76 181.06-11.13 179.82-11.9 178.59-12.68 176.31-12.68L176.31-12.68 167.64-12.7 167.64-15.98 176.91-16Q180.19-16 181.59-17.61 182.99-19.23 182.99-22L182.99-22 182.99-22.75Q182.99-25.5 181.56-27.01 180.14-28.53 176.81-28.53L176.81-28.53 167.51-28.53 167.51-31.95 177.36-31.95Q182.51-31.95 184.85-29.69 187.19-27.43 187.19-23.45L187.19-23.45 187.19-22.6Q187.19-19.48 185.71-17.49 184.24-15.5 180.81-15.08L180.81-15.08 180.81-14.58 179.04-15.2Q181.81-15 183.32-13.99 184.84-12.98 185.54-11.23 186.24-9.47 186.61-7.03L186.61-7.03 187.69 0ZM168.89 0L164.79 0 164.79-31.95 168.86-31.95 168.86-14.88 168.89-13.3 168.89 0ZM205.13 0L200.98 0 200.98-31.28 205.13-31.28 205.13 0ZM214.71-28.48L191.41-28.48 191.41-31.95 214.71-31.95 214.71-28.48Z" opacity="1" transform="matrix(1,0,0,1,0,0)" fill="#e65a41" class="wordmark-text-0" data-fill-palette-color="primary" id="text-0"></path></svg></g></svg></g><g transform="matrix(1,0,0,1,0,76.62098012363636)"><svg viewBox="0 0 395.52 25.759678569114115" height="25.759678569114115" width="395.52"><g transform="matrix(1,0,0,1,0,0)"><svg width="395.52" viewBox="2.3 -38.6 771.47 50.25" height="25.759678569114115" data-palette-color="#e65a41"><path d="M19.55-11.9L16.7-11.9 8.5-27.7Q7.5-29.7 6.28-31.33 5.05-32.95 4.65-33.45L4.65-33.45 7.35-31.7 2.3-32.9 2.55-35.5Q3.5-35.45 4.65-35.4 5.8-35.35 6.83-35.3 7.85-35.25 8.3-35.25L8.3-35.25Q10.6-35.25 12.6-35.35 14.6-35.45 15.25-35.5L15.25-35.5 15.45-32.65 9.65-31.85 11.05-33.4Q11.05-32.9 11.58-31.1 12.1-29.3 13.65-26.5L13.65-26.5 19.45-15.6 17.9-15.55 24.45-28.85Q24.85-29.65 25.33-30.73 25.8-31.8 26.2-32.68 26.6-33.55 26.65-33.75L26.65-33.75 27.6-31.8 22-32.9 22.25-35.5Q23.4-35.45 24.68-35.35 25.95-35.25 26.7-35.25L26.7-35.25Q29.05-35.25 31.15-35.35 33.25-35.45 33.9-35.5L33.9-35.5 34.1-32.65 28.9-32.1 31.5-33.45Q31.05-32.95 29.88-31.3 28.7-29.65 27.4-27.25L27.4-27.25 19.55-11.9ZM11.95 0.25L11.95 0.25 11.7-2.2 17.4-3.35 15.45-1.4Q15.55-1.85 15.7-2.93 15.85-4 16-5.13 16.15-6.25 16.15-6.75L16.15-6.75 16.15-16.05 20.45-16.05 20.45-8.25Q20.45-6.95 20.55-5.63 20.65-4.3 20.8-3.18 20.95-2.05 21.05-1.4L21.05-1.4 19.1-3.15 25.4-2.65 25.05 0 18.65 0Q18.35 0 17.2 0.05 16.05 0.1 14.63 0.15 13.2 0.2 11.95 0.25ZM47.75 0.5L47.75 0.5Q43.95 0.5 41.4-1.15 38.85-2.8 37.57-5.68 36.3-8.55 36.3-12.3L36.3-12.3Q36.3-16.1 37.57-18.98 38.85-21.85 41.4-23.5 43.95-25.15 47.75-25.15L47.75-25.15Q53.45-25.15 56.27-21.63 59.1-18.1 59.1-12.3L59.1-12.3Q59.1-8.55 57.82-5.65 56.55-2.75 54.02-1.13 51.5 0.5 47.75 0.5ZM47.75-2.2L47.75-2.2Q50.45-2.2 52-3.7 53.55-5.2 54.17-7.53 54.8-9.85 54.8-12.3L54.8-12.3Q54.8-14.8 54.17-17.13 53.55-19.45 52-20.95 50.45-22.45 47.75-22.45L47.75-22.45Q45.05-22.45 43.5-20.98 41.95-19.5 41.27-17.18 40.6-14.85 40.6-12.3L40.6-12.3Q40.6-9.8 41.27-7.48 41.95-5.15 43.5-3.68 45.05-2.2 47.75-2.2ZM74.5 0.55L74.5 0.55Q71 0.55 69.27-0.93 67.55-2.4 67-5.03 66.45-7.65 66.45-11.05L66.45-11.05 66.45-17.8Q66.45-18.25 66.34-19.13 66.25-20 66.07-21.05 65.9-22.1 65.75-22.95L65.75-22.95 67.55-21.1 62.6-22.1 62.8-24.7 69.59-24.7 70.55-23.8Q70.5-22.75 70.4-21.35 70.3-19.95 70.25-18.6 70.2-17.25 70.2-16.3L70.2-16.3 70.2-9.15Q70.2-6.25 71.3-4.38 72.4-2.5 75.3-2.5L75.3-2.5Q77.45-2.5 78.84-3.65 80.25-4.8 80.97-6.63 81.7-8.45 81.7-10.4L81.7-10.4 81.7-17.8Q81.7-18.25 81.59-19.13 81.5-20 81.34-21.05 81.2-22.1 81.05-22.95L81.05-22.95 82.9-21.15 77.7-22.1 77.9-24.7 84.84-24.7 85.8-23.8Q85.75-22.75 85.67-21.35 85.59-19.95 85.55-18.6 85.5-17.25 85.5-16.3L85.5-16.3 85.5-8.2Q85.5-6.5 85.72-4.78 85.95-3.05 86.09-1.3L86.09-1.3 84.3-3.15 89.5-2.6 89.2 0 82.95 0 82-5.55 82.5-4.35Q82.2-3.75 81.32-2.58 80.45-1.4 78.82-0.43 77.2 0.55 74.5 0.55ZM92.54 0.25L92.54 0.25 92.29-2.15 97.89-3.3 95.89-1.45Q95.99-1.85 96.17-2.85 96.34-3.85 96.52-4.98 96.69-6.1 96.69-6.7L96.69-6.7 96.69-17.8Q96.69-18.45 96.54-19.58 96.39-20.7 96.19-21.83 95.99-22.95 95.89-23.45L95.89-23.45 97.89-21.15 92.39-22.1 92.64-24.7 98.84-24.7 99.79-23.8 100.49-16.3 98.99-17.9Q99.54-19.25 100.24-20.53 100.94-21.8 101.97-22.85 102.99-23.9 104.52-24.53 106.04-25.15 108.24-25.15L108.24-25.15Q109.09-25.15 109.92-25.03 110.74-24.9 111.54-24.65L111.54-24.65 111.09-16.6 108.24-16.75 108.24-19.35Q108.24-19.6 108.04-20.3 107.84-21 107.57-21.83 107.29-22.65 107.04-23.2L107.04-23.2 109.39-21.9Q108.89-21.85 108.37-21.85 107.84-21.85 107.34-21.85L107.34-21.85Q103.74-21.85 102.12-19.7 100.49-17.55 100.49-14L100.49-14 100.49-8.2Q100.49-6.25 100.64-4.2 100.79-2.15 100.94-1.25L100.94-1.25 99.09-3.1 105.79-2.6 105.49 0 98.04 0Q97.54 0 96.59 0.05 95.64 0.1 94.57 0.15 93.49 0.2 92.54 0.25ZM144.04 0.75L144.04 0.75Q137.69 0.75 134.49-3.08 131.29-6.9 131.29-13.3L131.29-13.3 131.29-28.25Q131.29-28.8 131.14-29.93 130.99-31.05 130.81-32.25 130.64-33.45 130.49-34.1L130.49-34.1 132.54-32.05 126.79-32.9 127.04-35.5Q127.99-35.45 129.14-35.4 130.29-35.35 131.31-35.3 132.34-35.25 132.79-35.25L132.79-35.25Q133.69-35.25 135.06-35.3 136.44-35.35 137.79-35.4 139.14-35.45 139.94-35.5L139.94-35.5 140.14-32.65 134.44-32.15 136.29-34.1Q136.24-33.55 136.11-32.3 135.99-31.05 135.89-29.55 135.79-28.05 135.79-26.75L135.79-26.75 135.79-13.3Q135.79-10.1 136.74-7.6 137.69-5.1 139.64-3.68 141.59-2.25 144.49-2.25L144.49-2.25Q147.54-2.25 149.51-3.7 151.49-5.15 152.49-7.65 153.49-10.15 153.49-13.3L153.49-13.3 153.49-28.25Q153.49-28.65 153.39-29.5 153.29-30.35 153.14-31.33 152.99-32.3 152.86-33.08 152.74-33.85 152.69-34.1L152.69-34.1 154.89-32 149.04-32.9 149.29-35.5Q150.69-35.45 152.24-35.35 153.79-35.25 154.54-35.25L154.54-35.25Q156.14-35.25 157.89-35.35 159.64-35.45 161.04-35.5L161.04-35.5 161.24-32.65 155.54-32.15 157.39-34.1Q157.34-33.55 157.21-32.3 157.09-31.05 156.99-29.55 156.89-28.05 156.89-26.75L156.89-26.75 156.89-13.3Q156.89-6.9 153.66-3.08 150.44 0.75 144.04 0.75ZM164.89 0.25L164.89 0.25 164.64-2.15 170.24-3.3 168.24-1.45Q168.34-1.85 168.51-2.85 168.69-3.85 168.86-4.98 169.03-6.1 169.03-6.7L169.03-6.7 169.03-30.9Q169.03-31.55 168.91-32.58 168.78-33.6 168.61-34.7 168.44-35.8 168.28-36.55L168.28-36.55 170.24-34.25 164.74-35.45 164.99-37.95 169.44-37.8 172.19-37.8 173.14-36.9Q173.09-36.15 173.01-34.83 172.94-33.5 172.89-32.05 172.84-30.6 172.84-29.4L172.84-29.4 172.84-8.2Q172.84-6.2 172.99-4.17 173.14-2.15 173.28-1.25L173.28-1.25 171.44-3.1 177.09-2.6 176.74 0 170.39 0Q169.89 0 168.94 0.05 167.99 0.1 166.91 0.15 165.84 0.2 164.89 0.25ZM189.23 0.75L189.23 0.75Q185.88 0.75 184.76-1.05 183.63-2.85 183.63-6.2L183.63-6.2 183.63-23.75 185.23-22.1 179.43-22.1 179.28-24.1Q179.93-24.35 180.88-24.68 181.83-25 182.81-25.35 183.78-25.7 184.38-25.9L184.38-25.9 182.68-24.25Q182.93-24.55 183.36-25.33 183.78-26.1 184.23-27.08 184.68-28.05 185.08-28.85 185.48-29.65 185.63-30L185.63-30 187.43-29.8 187.43-6Q187.43-4.3 188.03-3.35 188.63-2.4 190.33-2.4L190.33-2.4Q191.43-2.4 192.61-2.93 193.78-3.45 194.73-4.3L194.73-4.3 196.08-2.15Q194.28-0.7 192.56 0.03 190.83 0.75 189.23 0.75ZM194.58-22.1L186.58-22.1 186.58-24.7 194.83-24.7 194.58-22.1ZM199.48 0.25L199.48 0.25 199.23-2.15 204.83-3.3 202.83-1.45Q202.93-1.85 203.11-2.85 203.28-3.85 203.46-4.98 203.63-6.1 203.63-6.7L203.63-6.7 203.63-17.8Q203.63-18.45 203.51-19.48 203.38-20.5 203.21-21.6 203.03-22.7 202.88-23.45L202.88-23.45 204.83-21.15 199.33-22.1 199.58-24.7 206.78-24.7 207.73-23.8Q207.68-23.05 207.61-21.73 207.53-20.4 207.48-18.95 207.43-17.5 207.43-16.3L207.43-16.3 207.43-8.2Q207.43-6.25 207.58-4.2 207.73-2.15 207.88-1.25L207.88-1.25 206.03-3.1 211.68-2.6 211.33 0 204.98 0Q204.48 0 203.53 0.05 202.58 0.1 201.51 0.15 200.43 0.2 199.48 0.25ZM204.78-29.6L204.78-29.6Q203.38-29.6 202.63-30.45 201.88-31.3 201.88-32.7L201.88-32.7Q201.88-34.15 202.63-35.02 203.38-35.9 204.78-35.9L204.78-35.9Q206.18-35.9 206.93-35.08 207.68-34.25 207.68-32.7L207.68-32.7Q207.68-31.3 206.96-30.45 206.23-29.6 204.78-29.6ZM244.88 0.25L244.88 0.25 244.63-2.15 249.63-3.35 247.83-1.75Q247.98-2.3 248.13-3.2 248.28-4.1 248.4-5.08 248.53-6.05 248.53-6.7L248.53-6.7 248.53-13.6Q248.53-15.8 248.18-17.78 247.83-19.75 246.83-21 245.83-22.25 243.88-22.25L243.88-22.25Q240.98-22.25 239.28-19.83 237.58-17.4 237.48-13.7L237.48-13.7 236.23-18.45Q237.13-21.75 239.48-23.43 241.83-25.1 244.58-25.1L244.58-25.1Q247.83-25.1 249.48-23.68 251.13-22.25 251.7-19.65 252.28-17.05 252.28-13.55L252.28-13.55 252.28-8.2Q252.28-6.95 252.38-5.68 252.48-4.4 252.6-3.43 252.73-2.45 252.78-2L252.78-2 250.98-3.1 256.58-2.6 256.28 0 249.88 0Q249.63 0 248.75 0.05 247.88 0.1 246.8 0.15 245.73 0.2 244.88 0.25ZM214.78 0.25L214.78 0.25 214.53-2.15 220.13-3.3 218.13-1.45Q218.23-1.85 218.4-2.85 218.58-3.85 218.75-4.98 218.93-6.1 218.93-6.7L218.93-6.7 218.93-17.8Q218.93-18.45 218.78-19.58 218.63-20.7 218.43-21.83 218.23-22.95 218.13-23.45L218.13-23.45 220.13-21.15 214.63-22.1 214.88-24.7 221.08-24.7 222.03-23.8 222.73-16.45 222.73-8.2Q222.73-6.25 222.88-4.2 223.03-2.15 223.18-1.25L223.18-1.25 221.33-3.1 226.98-2.6 226.63 0 220.28 0Q219.78 0 218.83 0.05 217.88 0.1 216.8 0.15 215.73 0.2 214.78 0.25ZM230.08 0.25L230.08 0.25 229.83-2.15 234.83-3.35 233.03-1.75Q233.18-2.3 233.33-3.2 233.48-4.1 233.6-5.08 233.73-6.05 233.73-6.7L233.73-6.7 233.73-13.6Q233.73-15.8 233.38-17.78 233.03-19.75 232.03-21 231.03-22.25 229.08-22.25L229.08-22.25Q226.18-22.25 224.48-19.85 222.78-17.45 222.73-13.75L222.73-13.75 221.43-18.5Q222.03-20.7 223.3-22.15 224.58-23.6 226.25-24.35 227.93-25.1 229.78-25.1L229.78-25.1Q233.03-25.1 234.68-23.68 236.33-22.25 236.9-19.65 237.48-17.05 237.48-13.55L237.48-13.55 237.48-8.2Q237.48-6.95 237.58-5.68 237.68-4.4 237.8-3.43 237.93-2.45 237.98-2L237.98-2 236.18-3.1 241.83-2.6 241.48 0 235.08 0Q234.83 0 233.95 0.05 233.08 0.1 232 0.15 230.93 0.2 230.08 0.25ZM267.18 0.5L267.18 0.5Q263.83 0.5 261.88-1.23 259.93-2.95 259.93-5.85L259.93-5.85Q259.93-8.45 261.6-10.18 263.28-11.9 266.63-12.45L266.63-12.45 275.38-13.9 275.38-11.45 267.23-9.9Q265.73-9.65 264.88-8.75 264.03-7.85 264.03-6.55L264.03-6.55Q264.03-4.65 265-3.58 265.98-2.5 267.78-2.5L267.78-2.5Q270.43-2.5 272.4-4.2 274.38-5.9 274.73-8.4L274.73-8.4 274.73-15.45Q274.73-19.05 273.53-20.83 272.33-22.6 269.93-22.6L269.93-22.6Q268.88-22.6 267.68-22.4 266.48-22.2 265.43-21.85 264.38-21.5 263.83-21.1L263.83-21.1 265.38-23.25 264.78-19.5 264.83-17.45 261.93-17.3 261.43-23.95Q262.93-24.35 264.43-24.6 265.93-24.85 267.43-24.98 268.93-25.1 270.43-25.1L270.43-25.1Q274.88-25.1 276.68-22.68 278.48-20.25 278.48-14.35L278.48-14.35 278.48-8.2Q278.48-5.95 278.75-4.28 279.03-2.6 279.23-1.65L279.23-1.65 277.58-3.15 282.48-2.6 282.18 0 275.93 0 274.93-5.65 275.83-5.8Q275.73-4.4 274.5-2.93 273.28-1.45 271.35-0.48 269.43 0.5 267.18 0.5ZM294.62 0.75L294.62 0.75Q291.27 0.75 290.15-1.05 289.02-2.85 289.02-6.2L289.02-6.2 289.02-23.75 290.62-22.1 284.82-22.1 284.67-24.1Q285.32-24.35 286.27-24.68 287.22-25 288.2-25.35 289.17-25.7 289.77-25.9L289.77-25.9 288.07-24.25Q288.32-24.55 288.75-25.33 289.17-26.1 289.62-27.08 290.07-28.05 290.47-28.85 290.87-29.65 291.02-30L291.02-30 292.82-29.8 292.82-6Q292.82-4.3 293.42-3.35 294.02-2.4 295.72-2.4L295.72-2.4Q296.82-2.4 298-2.93 299.17-3.45 300.12-4.3L300.12-4.3 301.47-2.15Q299.67-0.7 297.95 0.03 296.22 0.75 294.62 0.75ZM299.97-22.1L291.97-22.1 291.97-24.7 300.22-24.7 299.97-22.1ZM316.62 0.5L316.62 0.5Q312.87 0.5 310.32-1.15 307.77-2.8 306.5-5.7 305.22-8.6 305.22-12.25L305.22-12.25Q305.22-15.95 306.37-18.85 307.52-21.75 309.92-23.43 312.32-25.1 315.97-25.1L315.97-25.1Q319.47-25.1 321.52-23.65 323.57-22.2 324.5-19.6 325.42-17 325.42-13.6L325.42-13.6 324.62-12 308.42-12 308.42-14.25 322.87-15.35 321.27-13.6Q321.27-14.25 321.3-14.88 321.32-15.5 321.32-16.25L321.32-16.25Q321.32-18.9 319.97-20.8 318.62-22.7 315.82-22.7L315.82-22.7Q313.97-22.7 312.72-21.78 311.47-20.85 310.77-19.3 310.07-17.75 309.77-15.98 309.47-14.2 309.47-12.45L309.47-12.45Q309.47-10.8 309.87-9.08 310.27-7.35 311.12-5.85 311.97-4.35 313.25-3.45 314.52-2.55 316.32-2.55L316.32-2.55Q318.67-2.55 320.8-3.28 322.92-4 324.02-4.65L324.02-4.65 325.32-2.45Q325.47-2.6 324.97-2.18 324.47-1.75 323.35-1.13 322.22-0.5 320.55 0 318.87 0.5 316.62 0.5ZM353.42 0.75L353.42 0.75Q349.77 0.75 346.82-0.15 343.87-1.05 342.47-1.9L342.47-1.9 343.22-9.45 346.47-9.15 346.47-6.85Q346.47-6.6 346.54-6.03 346.62-5.45 346.72-4.78 346.82-4.1 346.94-3.53 347.07-2.95 347.17-2.65L347.17-2.65 346.27-3.8Q347.57-3.15 349.49-2.63 351.42-2.1 353.57-2.1L353.57-2.1Q356.67-2.1 358.47-3.78 360.27-5.45 360.27-8.5L360.27-8.5Q360.27-10.6 359.02-12.03 357.77-13.45 355.82-14.58 353.87-15.7 351.69-16.75 349.52-17.8 347.57-19.13 345.62-20.45 344.37-22.3 343.12-24.15 343.12-26.8L343.12-26.8Q343.12-29.8 344.54-31.85 345.97-33.9 348.42-34.95 350.87-36 353.92-36L353.92-36Q356.37-36 358.97-35.5 361.57-35 363.97-34.4L363.97-34.4 363.27-27 360.37-27.35 360.37-29.45Q360.37-29.8 360.22-30.53 360.07-31.25 359.87-32.08 359.67-32.9 359.47-33.55L359.47-33.55 360.87-31.7Q358.72-32.85 357.22-33.13 355.72-33.4 353.67-33.4L353.67-33.4Q351.37-33.4 349.64-31.98 347.92-30.55 347.92-27.75L347.92-27.75Q347.92-25.75 349.17-24.38 350.42-23 352.42-21.88 354.42-20.75 356.62-19.65 358.82-18.55 360.82-17.15 362.82-15.75 364.07-13.8 365.32-11.85 365.32-9L365.32-9Q365.32-5.7 363.72-3.55 362.12-1.4 359.42-0.33 356.72 0.75 353.42 0.75ZM379.71 0.75L379.71 0.75Q376.36 0.75 375.24-1.05 374.11-2.85 374.11-6.2L374.11-6.2 374.11-23.75 375.71-22.1 369.91-22.1 369.76-24.1Q370.41-24.35 371.36-24.68 372.31-25 373.29-25.35 374.26-25.7 374.86-25.9L374.86-25.9 373.16-24.25Q373.41-24.55 373.84-25.33 374.26-26.1 374.71-27.08 375.16-28.05 375.56-28.85 375.96-29.65 376.11-30L376.11-30 377.91-29.8 377.91-6Q377.91-4.3 378.51-3.35 379.11-2.4 380.81-2.4L380.81-2.4Q381.91-2.4 383.09-2.93 384.26-3.45 385.21-4.3L385.21-4.3 386.56-2.15Q384.76-0.7 383.04 0.03 381.31 0.75 379.71 0.75ZM385.06-22.1L377.06-22.1 377.06-24.7 385.31-24.7 385.06-22.1ZM401.76 0.5L401.76 0.5Q397.96 0.5 395.41-1.15 392.86-2.8 391.59-5.68 390.31-8.55 390.31-12.3L390.31-12.3Q390.31-16.1 391.59-18.98 392.86-21.85 395.41-23.5 397.96-25.15 401.76-25.15L401.76-25.15Q407.46-25.15 410.29-21.63 413.11-18.1 413.11-12.3L413.11-12.3Q413.11-8.55 411.84-5.65 410.56-2.75 408.04-1.13 405.51 0.5 401.76 0.5ZM401.76-2.2L401.76-2.2Q404.46-2.2 406.01-3.7 407.56-5.2 408.19-7.53 408.81-9.85 408.81-12.3L408.81-12.3Q408.81-14.8 408.19-17.13 407.56-19.45 406.01-20.95 404.46-22.45 401.76-22.45L401.76-22.45Q399.06-22.45 397.51-20.98 395.96-19.5 395.29-17.18 394.61-14.85 394.61-12.3L394.61-12.3Q394.61-9.8 395.29-7.48 395.96-5.15 397.51-3.68 399.06-2.2 401.76-2.2ZM417.31 11.65L417.31 11.65 417.06 9.2 422.11 8.05 420.11 9.95Q420.21 9.55 420.38 8.55 420.56 7.55 420.73 6.43 420.91 5.3 420.91 4.7L420.91 4.7 420.91-17.8Q420.91-18.45 420.73-19.58 420.56-20.7 420.36-21.83 420.16-22.95 420.06-23.45L420.06-23.45 422.11-21.15 416.61-22.1 416.86-24.7 423.06-24.7 424.01-23.8 424.41-18.95 424.11-19.75Q424.26-21.1 425.41-22.33 426.56-23.55 428.16-24.33 429.76-25.1 431.21-25.1L431.21-25.1Q436.11-25.1 438.83-21.88 441.56-18.65 441.56-12.8L441.56-12.8Q441.56-9 440.06-5.98 438.56-2.95 435.98-1.23 433.41 0.5 430.16 0.5L430.16 0.5Q428.66 0.5 427.06 0.03 425.46-0.45 423.91-1.25L423.91-1.25 423.96-4.8Q425.46-3.55 426.98-2.95 428.51-2.35 429.91-2.35L429.91-2.35Q433.51-2.35 435.46-5.05 437.41-7.75 437.41-12.75L437.41-12.75Q437.41-17.5 435.78-19.93 434.16-22.35 431.06-22.35L431.06-22.35Q428.16-22.35 426.41-20.13 424.66-17.9 424.66-14.3L424.66-14.3 424.66 3.2Q424.66 5.15 424.83 7.2 425.01 9.25 425.16 10.15L425.16 10.15 423.31 8.25 430.01 8.75 429.71 11.4 422.26 11.4Q421.76 11.4 420.93 11.45 420.11 11.5 419.16 11.55 418.21 11.6 417.31 11.65ZM456.95 0.25L456.95 0.25 456.7-2.15 462.25-3.3 460.3-1.45Q460.35-1.85 460.55-2.85 460.75-3.85 460.93-4.98 461.1-6.1 461.1-6.7L461.1-6.7 461.1-22.7 461.75-22.1 457.15-22.1 457-24.2 461.7-24.8 461.1-23.9 461.1-29.95Q461.1-32.55 462.1-34.48 463.1-36.4 465.05-37.45 467-38.5 469.85-38.5L469.85-38.5Q470.7-38.5 471.55-38.38 472.4-38.25 472.8-38.15L472.8-38.15 472.25-31.45 470.3-31.6 470.3-33.35Q470.3-33.6 470.03-34.77 469.75-35.95 469.35-37.35L469.35-37.35 471.75-36Q471.35-36 470.9-36 470.45-36 470.05-36 469.65-36 469.35-36L469.35-36Q467.4-36 466.45-35.08 465.5-34.15 465.2-32.52 464.9-30.9 464.9-28.78 464.9-26.65 464.85-24.25L464.85-24.25 464.2-24.7 472-24.7 471.75-22.1 464.2-22.1 464.85-23 464.85-8.2Q464.85-6.25 465-4.2 465.15-2.15 465.3-1.25L465.3-1.25 463.45-3.1 470.15-2.6 469.85 0 462.45 0Q461.95 0 461 0.05 460.05 0.1 458.98 0.15 457.9 0.2 456.95 0.25ZM487.1 0.5L487.1 0.5Q483.3 0.5 480.75-1.15 478.2-2.8 476.93-5.68 475.65-8.55 475.65-12.3L475.65-12.3Q475.65-16.1 476.93-18.98 478.2-21.85 480.75-23.5 483.3-25.15 487.1-25.15L487.1-25.15Q492.8-25.15 495.63-21.63 498.45-18.1 498.45-12.3L498.45-12.3Q498.45-8.55 497.18-5.65 495.9-2.75 493.38-1.13 490.85 0.5 487.1 0.5ZM487.1-2.2L487.1-2.2Q489.8-2.2 491.35-3.7 492.9-5.2 493.53-7.53 494.15-9.85 494.15-12.3L494.15-12.3Q494.15-14.8 493.53-17.13 492.9-19.45 491.35-20.95 489.8-22.45 487.1-22.45L487.1-22.45Q484.4-22.45 482.85-20.98 481.3-19.5 480.63-17.18 479.95-14.85 479.95-12.3L479.95-12.3Q479.95-9.8 480.63-7.48 481.3-5.15 482.85-3.68 484.4-2.2 487.1-2.2ZM502.85 0.25L502.85 0.25 502.6-2.15 508.2-3.3 506.2-1.45Q506.3-1.85 506.47-2.85 506.65-3.85 506.82-4.98 507-6.1 507-6.7L507-6.7 507-17.8Q507-18.45 506.85-19.58 506.7-20.7 506.5-21.83 506.3-22.95 506.2-23.45L506.2-23.45 508.2-21.15 502.7-22.1 502.95-24.7 509.15-24.7 510.1-23.8 510.8-16.3 509.3-17.9Q509.85-19.25 510.55-20.53 511.25-21.8 512.27-22.85 513.3-23.9 514.82-24.53 516.35-25.15 518.55-25.15L518.55-25.15Q519.4-25.15 520.22-25.03 521.05-24.9 521.85-24.65L521.85-24.65 521.4-16.6 518.55-16.75 518.55-19.35Q518.55-19.6 518.35-20.3 518.15-21 517.87-21.83 517.6-22.65 517.35-23.2L517.35-23.2 519.7-21.9Q519.2-21.85 518.67-21.85 518.15-21.85 517.65-21.85L517.65-21.85Q514.05-21.85 512.42-19.7 510.8-17.55 510.8-14L510.8-14 510.8-8.2Q510.8-6.25 510.95-4.2 511.1-2.15 511.25-1.25L511.25-1.25 509.4-3.1 516.1-2.6 515.8 0 508.35 0Q507.85 0 506.9 0.05 505.95 0.1 504.87 0.15 503.8 0.2 502.85 0.25ZM537.84 0.25L537.84 0.25 537.59-2.2 543.29-3.35 541.24-0.95Q541.39-1.75 541.59-2.9 541.79-4.05 541.92-5.13 542.04-6.2 542.04-6.75L542.04-6.75 542.04-28.5Q542.04-29.05 541.92-30.1 541.79-31.15 541.62-32.23 541.44-33.3 541.29-33.85L541.29-33.85 543.29-32 537.69-32.9 537.94-35.5Q538.89-35.45 540.04-35.4 541.19-35.35 542.22-35.3 543.24-35.25 543.69-35.25L543.69-35.25 554.84-35.25Q555.34-35.25 556.54-35.3 557.74-35.35 558.94-35.43 560.14-35.5 560.54-35.5L560.54-35.5 561.49-34.6 561.84-28.15 558.99-27.9Q558.94-28.5 558.77-29.25 558.59-30 558.44-30.55L558.44-30.55Q558.39-30.95 557.72-31.88 557.04-32.8 556.49-33.3L556.49-33.3 558.19-32.25Q557.44-32.3 556.04-32.43 554.64-32.55 553.34-32.55L553.34-32.55 545.04-32.55 546.89-34Q546.89-33.85 546.74-32.63 546.59-31.4 546.47-29.8 546.34-28.2 546.34-27L546.34-27 546.34-8.25Q546.34-6.95 546.44-5.5 546.54-4.05 546.69-2.85 546.84-1.65 546.94-1.15L546.94-1.15 544.99-3.15 551.74-2.65 551.34 0 544.54 0Q543.94 0 542.82 0.05 541.69 0.1 540.39 0.15 539.09 0.2 537.84 0.25ZM558.14-13.2L555.79-12.9 555.14-17.75 556.99-16.1Q556.59-16.2 555.47-16.3 554.34-16.4 553.14-16.5 551.94-16.6 551.29-16.6L551.29-16.6 544.74-16.6 544.74-19.3 552.29-19.3Q553.39-19.3 554.74-19.6 556.09-19.9 556.74-20.1L556.74-20.1 555.14-18.3 555.79-23.05 557.99-22.8 557.99-18.6Q557.99-17.25 558.04-15.7 558.09-14.15 558.14-13.2L558.14-13.2ZM566.59 0.25L566.59 0.25 566.34-2.15 571.94-3.3 569.94-1.45Q570.04-1.85 570.21-2.85 570.39-3.85 570.56-4.98 570.74-6.1 570.74-6.7L570.74-6.7 570.74-17.8Q570.74-18.45 570.59-19.58 570.44-20.7 570.24-21.83 570.04-22.95 569.94-23.45L569.94-23.45 571.94-21.15 566.44-22.1 566.69-24.7 572.89-24.7 573.84-23.8 574.54-16.3 573.04-17.9Q573.59-19.25 574.29-20.53 574.99-21.8 576.01-22.85 577.04-23.9 578.56-24.53 580.09-25.15 582.29-25.15L582.29-25.15Q583.14-25.15 583.96-25.03 584.79-24.9 585.59-24.65L585.59-24.65 585.14-16.6 582.29-16.75 582.29-19.35Q582.29-19.6 582.09-20.3 581.89-21 581.61-21.83 581.34-22.65 581.09-23.2L581.09-23.2 583.44-21.9Q582.94-21.85 582.41-21.85 581.89-21.85 581.39-21.85L581.39-21.85Q577.79-21.85 576.16-19.7 574.54-17.55 574.54-14L574.54-14 574.54-8.2Q574.54-6.25 574.69-4.2 574.84-2.15 574.99-1.25L574.99-1.25 573.14-3.1 579.84-2.6 579.54 0 572.09 0Q571.59 0 570.64 0.05 569.69 0.1 568.61 0.15 567.54 0.2 566.59 0.25ZM601.09 0.5L601.09 0.5Q597.34 0.5 594.79-1.15 592.24-2.8 590.96-5.7 589.69-8.6 589.69-12.25L589.69-12.25Q589.69-15.95 590.84-18.85 591.99-21.75 594.39-23.43 596.79-25.1 600.44-25.1L600.44-25.1Q603.94-25.1 605.99-23.65 608.04-22.2 608.96-19.6 609.89-17 609.89-13.6L609.89-13.6 609.09-12 592.89-12 592.89-14.25 607.34-15.35 605.74-13.6Q605.74-14.25 605.76-14.88 605.79-15.5 605.79-16.25L605.79-16.25Q605.79-18.9 604.44-20.8 603.09-22.7 600.29-22.7L600.29-22.7Q598.44-22.7 597.19-21.78 595.94-20.85 595.24-19.3 594.54-17.75 594.24-15.98 593.94-14.2 593.94-12.45L593.94-12.45Q593.94-10.8 594.34-9.08 594.74-7.35 595.59-5.85 596.44-4.35 597.71-3.45 598.99-2.55 600.79-2.55L600.79-2.55Q603.14-2.55 605.26-3.28 607.39-4 608.49-4.65L608.49-4.65 609.79-2.45Q609.94-2.6 609.44-2.18 608.94-1.75 607.81-1.13 606.69-0.5 605.01 0 603.34 0.5 601.09 0.5ZM622.98 0.5L622.98 0.5Q619.93 0.5 618.01-0.28 616.08-1.05 615.23-1.55L615.23-1.55 615.23-8 618.08-8.2 618.08-6.2Q618.08-5.85 618.33-5.05 618.58-4.25 618.98-3.4 619.38-2.55 619.78-1.95L619.78-1.95 618.33-4.1Q619.23-2.8 620.38-2.35 621.53-1.9 623.03-1.9L623.03-1.9Q625.03-1.9 626.23-2.85 627.43-3.8 627.43-5.85L627.43-5.85Q627.43-7.7 625.83-8.78 624.23-9.85 622.13-10.85L622.13-10.85Q620.88-11.45 619.63-12.13 618.38-12.8 617.36-13.68 616.33-14.55 615.71-15.75 615.08-16.95 615.08-18.6L615.08-18.6Q615.08-21.7 617.31-23.43 619.53-25.15 622.78-25.15L622.78-25.15Q624.43-25.15 626.28-24.93 628.13-24.7 629.88-24.3L629.88-24.3 629.83-17.25 626.98-17.4 626.98-19.15Q626.98-19.45 626.71-20.25 626.43-21.05 626.11-21.93 625.78-22.8 625.58-23.3L625.58-23.3 627.28-21.45Q626.03-22.15 625.13-22.4 624.23-22.65 622.83-22.65L622.83-22.65Q621.08-22.65 619.98-21.78 618.88-20.9 618.88-19.3L618.88-19.3Q618.88-17.55 620.48-16.48 622.08-15.4 624.18-14.45L624.18-14.45Q625.48-13.85 626.73-13.15 627.98-12.45 629.03-11.58 630.08-10.7 630.71-9.53 631.33-8.35 631.33-6.75L631.33-6.75Q631.33-2.8 629.08-1.15 626.83 0.5 622.98 0.5ZM635.03 0.25L635.03 0.25 634.78-2.15 640.38-3.3 638.38-1.45Q638.48-1.85 638.66-2.85 638.83-3.85 639.01-4.98 639.18-6.1 639.18-6.7L639.18-6.7 639.18-30.9Q639.18-31.55 639.06-32.58 638.93-33.6 638.76-34.7 638.58-35.8 638.43-36.55L638.43-36.55 640.38-34.25 634.88-35.45 635.13-37.95 639.58-37.8 642.33-37.8 643.28-36.9Q643.23-36.15 643.16-34.83 643.08-33.5 643.03-32.05 642.98-30.6 642.98-29.4L642.98-29.4 642.98-19.65 642.53-20.55Q643.38-22.25 645.31-23.7 647.23-25.15 650.13-25.15L650.13-25.15Q653.63-25.15 655.43-23.7 657.23-22.25 657.88-19.65 658.53-17.05 658.53-13.55L658.53-13.55 658.53-8.2Q658.53-6.35 658.71-4.55 658.88-2.75 659.03-1.75L659.03-1.75 657.23-3.1 662.88-2.6 662.53 0 656.13 0Q655.78 0 654.91 0.05 654.03 0.1 653.01 0.15 651.98 0.2 651.13 0.25L651.13 0.25 650.88-2.15 655.88-3.35 654.03-2.2Q654.18-2.7 654.36-3.43 654.53-4.15 654.66-5 654.78-5.85 654.78-6.7L654.78-6.7 654.78-13.65Q654.78-15.85 654.38-17.82 653.98-19.8 652.83-21.05 651.68-22.3 649.48-22.3L649.48-22.3Q646.43-22.3 644.73-19.88 643.03-17.45 642.98-13.75L642.98-13.75 642.98-8.2Q642.98-6.25 643.13-4.2 643.28-2.15 643.43-1.25L643.43-1.25 641.58-3.1 647.23-2.6 646.88 0 640.53 0Q640.03 0 639.08 0.05 638.13 0.1 637.06 0.15 635.98 0.2 635.03 0.25ZM665.98 0.25L665.98 0.25 665.73-2.15 671.33-3.3 669.33-1.45Q669.43-1.85 669.6-2.85 669.78-3.85 669.95-4.98 670.13-6.1 670.13-6.7L670.13-6.7 670.13-17.8Q670.13-18.45 669.98-19.58 669.83-20.7 669.63-21.83 669.43-22.95 669.33-23.45L669.33-23.45 671.33-21.15 665.83-22.1 666.08-24.7 672.28-24.7 673.23-23.8 673.93-16.3 672.83-19.2Q673.58-21.1 674.75-22.4 675.93-23.7 677.53-24.4 679.13-25.1 681.03-25.1L681.03-25.1Q684.58-25.1 686.38-23.68 688.18-22.25 688.83-19.65 689.48-17.05 689.48-13.55L689.48-13.55 689.48-8.2Q689.48-6.35 689.65-4.55 689.83-2.75 689.98-1.75L689.98-1.75 688.18-3.1 693.83-2.6 693.48 0 687.08 0Q686.88 0 685.98 0.05 685.08 0.1 684 0.15 682.93 0.2 682.08 0.25L682.08 0.25 681.83-2.15 686.83-3.35 684.98-2.2Q685.13-2.7 685.3-3.43 685.48-4.15 685.6-5 685.73-5.85 685.73-6.7L685.73-6.7 685.73-13.6Q685.73-15.8 685.33-17.78 684.93-19.75 683.78-21 682.63-22.25 680.43-22.25L680.43-22.25Q677.38-22.25 675.65-19.85 673.93-17.45 673.93-13.75L673.93-13.75 673.93-8.2Q673.93-6.25 674.08-4.2 674.23-2.15 674.38-1.25L674.38-1.25 672.53-3.1 678.18-2.6 677.83 0 671.48 0Q670.98 0 670.03 0.05 669.08 0.1 668 0.15 666.93 0.2 665.98 0.25ZM708.68 0.5L708.68 0.5Q704.93 0.5 702.38-1.15 699.83-2.8 698.55-5.7 697.28-8.6 697.28-12.25L697.28-12.25Q697.28-15.95 698.43-18.85 699.58-21.75 701.98-23.43 704.38-25.1 708.03-25.1L708.03-25.1Q711.53-25.1 713.58-23.65 715.63-22.2 716.55-19.6 717.48-17 717.48-13.6L717.48-13.6 716.68-12 700.48-12 700.48-14.25 714.93-15.35 713.33-13.6Q713.33-14.25 713.35-14.88 713.38-15.5 713.38-16.25L713.38-16.25Q713.38-18.9 712.03-20.8 710.68-22.7 707.88-22.7L707.88-22.7Q706.03-22.7 704.78-21.78 703.53-20.85 702.83-19.3 702.13-17.75 701.83-15.98 701.53-14.2 701.53-12.45L701.53-12.45Q701.53-10.8 701.93-9.08 702.33-7.35 703.18-5.85 704.03-4.35 705.3-3.45 706.58-2.55 708.38-2.55L708.38-2.55Q710.73-2.55 712.85-3.28 714.98-4 716.08-4.65L716.08-4.65 717.38-2.45Q717.53-2.6 717.03-2.18 716.53-1.75 715.4-1.13 714.28-0.5 712.6 0 710.93 0.5 708.68 0.5ZM730.57 0.5L730.57 0.5Q727.52 0.5 725.6-0.28 723.67-1.05 722.82-1.55L722.82-1.55 722.82-8 725.67-8.2 725.67-6.2Q725.67-5.85 725.92-5.05 726.17-4.25 726.57-3.4 726.97-2.55 727.37-1.95L727.37-1.95 725.92-4.1Q726.82-2.8 727.97-2.35 729.12-1.9 730.62-1.9L730.62-1.9Q732.62-1.9 733.82-2.85 735.02-3.8 735.02-5.85L735.02-5.85Q735.02-7.7 733.42-8.78 731.82-9.85 729.72-10.85L729.72-10.85Q728.47-11.45 727.22-12.13 725.97-12.8 724.95-13.68 723.92-14.55 723.3-15.75 722.67-16.95 722.67-18.6L722.67-18.6Q722.67-21.7 724.9-23.43 727.12-25.15 730.37-25.15L730.37-25.15Q732.02-25.15 733.87-24.93 735.72-24.7 737.47-24.3L737.47-24.3 737.42-17.25 734.57-17.4 734.57-19.15Q734.57-19.45 734.3-20.25 734.02-21.05 733.7-21.93 733.37-22.8 733.17-23.3L733.17-23.3 734.87-21.45Q733.62-22.15 732.72-22.4 731.82-22.65 730.42-22.65L730.42-22.65Q728.67-22.65 727.57-21.78 726.47-20.9 726.47-19.3L726.47-19.3Q726.47-17.55 728.07-16.48 729.67-15.4 731.77-14.45L731.77-14.45Q733.07-13.85 734.32-13.15 735.57-12.45 736.62-11.58 737.67-10.7 738.3-9.53 738.92-8.35 738.92-6.75L738.92-6.75Q738.92-2.8 736.67-1.15 734.42 0.5 730.57 0.5ZM752.07 0.5L752.07 0.5Q749.02 0.5 747.1-0.28 745.17-1.05 744.32-1.55L744.32-1.55 744.32-8 747.17-8.2 747.17-6.2Q747.17-5.85 747.42-5.05 747.67-4.25 748.07-3.4 748.47-2.55 748.87-1.95L748.87-1.95 747.42-4.1Q748.32-2.8 749.47-2.35 750.62-1.9 752.12-1.9L752.12-1.9Q754.12-1.9 755.32-2.85 756.52-3.8 756.52-5.85L756.52-5.85Q756.52-7.7 754.92-8.78 753.32-9.85 751.22-10.85L751.22-10.85Q749.97-11.45 748.72-12.13 747.47-12.8 746.45-13.68 745.42-14.55 744.8-15.75 744.17-16.95 744.17-18.6L744.17-18.6Q744.17-21.7 746.4-23.43 748.62-25.15 751.87-25.15L751.87-25.15Q753.52-25.15 755.37-24.93 757.22-24.7 758.97-24.3L758.97-24.3 758.92-17.25 756.07-17.4 756.07-19.15Q756.07-19.45 755.8-20.25 755.52-21.05 755.2-21.93 754.87-22.8 754.67-23.3L754.67-23.3 756.37-21.45Q755.12-22.15 754.22-22.4 753.32-22.65 751.92-22.65L751.92-22.65Q750.17-22.65 749.07-21.78 747.97-20.9 747.97-19.3L747.97-19.3Q747.97-17.55 749.57-16.48 751.17-15.4 753.27-14.45L753.27-14.45Q754.57-13.85 755.82-13.15 757.07-12.45 758.12-11.58 759.17-10.7 759.8-9.53 760.42-8.35 760.42-6.75L760.42-6.75Q760.42-2.8 758.17-1.15 755.92 0.5 752.07 0.5ZM772.42-11.05L772.12-10.8 768.82-10.95 768.87-14.25 768.47-38.25 772.32-38.6 773.22-37.75Q773.12-35.8 772.97-33.23 772.82-30.65 772.69-27.93 772.57-25.2 772.44-22.68 772.32-20.15 772.27-18.2 772.22-16.25 772.27-15.35L772.27-15.35 772.42-11.05ZM770.92 0.5L770.92 0.5Q769.57 0.5 768.79-0.35 768.02-1.2 768.02-2.7L768.02-2.7Q768.02-4.1 768.77-4.98 769.52-5.85 770.92-5.85L770.92-5.85Q772.32-5.85 773.04-4.98 773.77-4.1 773.77-2.7L773.77-2.7Q773.77-1.3 773.04-0.4 772.32 0.5 770.92 0.5Z" opacity="1" transform="matrix(1,0,0,1,0,0)" fill="#e65a41" class="slogan-text-1" data-fill-palette-color="secondary" id="text-1"></path></svg></g></svg></g></svg></g></svg></g><g transform="matrix(1,0,0,1,127.0149648433094,0)"><svg viewBox="0 0 141.49007031338118 141.49007031338115" height="141.49007031338115" width="141.49007031338118"><g><svg></svg></g><g id="icon-0"><svg viewBox="0 0 141.49007031338118 141.49007031338115" height="141.49007031338115" width="141.49007031338118"><g><path transform="scale(1.4149,1.4149)" d="M30 100c-16.569 0-30-13.431-30-30v-40c0-16.569 13.431-30 30-30h40c16.569 0 30 13.431 30 30v40c0 16.569-13.431 30-30 30z" fill="#f4806b" fill-rule="nonzero" stroke="none" stroke-width="1" stroke-linecap="butt" stroke-linejoin="miter" stroke-miterlimit="10" stroke-dasharray="" stroke-dashoffset="0" font-family="none" font-weight="none" font-size="none" text-anchor="none" style="mix-blend-mode: normal" data-fill-palette-color="accent"></path></g><g transform="matrix(1,0,0,1,36.44408068898191,28.29801406267623)"><svg viewBox="0 0 68.60190893541736 84.89404218802869" height="84.89404218802869" width="68.60190893541736"><g><svg xmlns="http://www.w3.org/2000/svg" xmlns:xlink="http://www.w3.org/1999/xlink" version="1.1" x="0" y="0" viewBox="10.68369304113706 0.7970453998735059 71.53843218191167 88.52795460012649" style="enable-background:new 0 0 91 91;" xml:space="preserve" height="84.89404218802869" width="68.60190893541736" class="icon-dxe-0" data-fill-palette-color="quaternary" id="dxe-0"><g fill="#ffffff" data-fill-palette-color="quaternary"><path d="M10.7 43.3C11.6 51 12.1 57.6 13 64.7 13.7 70.6 13.6 77.5 15.7 83.1S22.7 89.1 28 89.2C35.7 89.4 43.5 89.3 51.3 89.3H62.3C65.2 89.3 68.1 89.1 70.4 87.1 72.9 85 74.8 81.5 75.5 78.3 76.8 72.6 77.3 66.6 78.2 60.8 79.1 55.2 80 49.6 80.9 44.1 81.2 42.4 79.7 41.3 78.1 42 77.1 42.4 76.1 42.7 75 42.9 77.9 34.6 80.1 26 81.5 17.3 82.4 11.5 84 1 75.1 0.8 66.9 0.6 62.2 10.6 59.2 16.7 58 19.1 56.9 21.6 55.9 24 54.3 22.7 52.3 21.7 51.5 20.3 51.8 20.1 52.2 19.8 52.6 19.6 53.2 19.2 53.7 18.3 53.4 17.6 52.6 15.2 51.7 12.9 50.9 10.5 50.6 9.5 49.8 9.2 48.8 9.3 43 10.2 37.7 12.5 32.4 14.9 31.7 15.2 31.4 16.2 31.6 16.9 32.2 19.3 33 21.6 33.7 24 34 25 35 25.5 36 25.3 36.3 25.2 36.7 25.1 37.1 25 37.3 26 37.2 26.8 36.7 28 36.1 29.4 35.7 30.8 35.4 32.2 33.9 29.7 31.4 27.8 28 27 25.7 26.5 23.3 26.5 21 27.1 19.7 25.7 18.2 24.5 16.5 23.9 14.7 23.3 13.1 25.9 14.6 27.1 15.4 27.7 16.2 28.2 17 28.8L15.8 29.7C12.6 32.4 10.7 37.2 12.5 41.2 12.2 41.4 10.5 42 10.7 43.3M60.2 23.1C61.6 19.9 63.2 16.8 64.9 13.8 66.8 10.5 69.1 6.3 72.9 5 80.1 2.5 78.7 12.4 77.4 18.5 73.5 17.7 69.1 17.9 65.9 20.5 64.7 21.5 66 23.1 67.3 22.9 70.6 22.4 73.3 21.5 76.6 22.2V22.4C76.3 23.9 75.9 25.4 75.6 26.9 71.6 26.3 67.3 26.5 63.8 28.7 62.6 29.5 63.3 31.4 64.8 31 68.2 30.1 71.4 29.8 74.8 30.2 74.3 31.9 73.8 33.6 73.2 35.3 69.2 34.2 63.9 34.2 61 36.9 60.3 37.6 60.9 38.6 61.7 38.7 63.7 38.8 65.7 38.3 67.7 38.3 69.1 38.3 70.5 38.6 71.9 38.9 71.4 40.3 70.8 41.7 70.3 43.1 67 42.7 63.7 41.8 60.6 41.3 58.2 41 56 41 53.8 41.3 55.6 35.1 57.6 29 60.2 23.1M52 25.2C53 25.8 53.8 26.6 54.6 27.3 54.2 28.4 53.8 29.5 53.4 30.5 52.3 31.7 51.5 32.7 49.6 32.8S45.9 32.3 44 32.4C42.2 32.6 40.5 33.2 39 34.3 39.2 32.7 39.6 31 40.3 29.2 40.9 27.8 41.4 26.4 41.1 24.9 41 24.2 40.6 23.7 40.5 23 40.5 22.8 40.4 22.6 40.4 22.5 40.8 22.4 41.2 22.3 41.6 22.1 42.5 21.8 46.9 19.8 47.5 20.2 48 20.5 48.2 22.4 48.7 23 49.6 24.1 51 24.6 52 25.2M51.5 36.3C51 38.1 50.5 40 50 41.9 48.2 42.3 46.4 42.8 44.5 43.3 43.1 43.7 41.6 44 40.2 44.1 39.7 42.4 39.3 40.8 39.1 39.2 40.6 37.4 42.2 36 44.8 36 46.6 36 48.4 36.6 50.2 36.5 50.6 36.5 51.1 36.4 51.5 36.3M36.4 21.2C36 20 35.5 18.8 35.2 17.5 39.3 15.5 43.4 13.8 47.9 13 48.3 14.3 48.8 15.6 49.2 16.9 49.2 16.9 37 19.3 36.4 21.2M19.4 32.6C19.5 32.5 19.6 32.5 19.7 32.4 20 33 20.3 33.6 20.6 34.3 21.3 35.7 23.8 35.1 23.6 33.5 23.5 32.7 23.4 32 23.1 31.2 24.7 30.9 26.5 31 28 31.5 33.2 33.1 34.6 38.9 33.2 43.6 30.8 43 28.5 42.1 26.2 41.4 22.9 40.5 19.4 39.7 16.1 40.2 16.2 37.1 16.5 34.5 19.4 32.6M14.2 45C19.3 42.3 26.1 45.6 31.2 47.1 37 48.7 42 48.1 47.7 46.5 50.6 45.7 53.5 44.8 56.5 44.8 59.4 44.8 62.2 45.4 65.1 46 69.1 46.8 72.9 47.3 76.7 46.4 75.3 55.5 72 76.5 71.7 77.8 71.3 79.3 70.5 81 69.6 82.3 67.2 85.6 63.4 85 59.8 84.9 53.1 84.7 46.3 84.7 39.6 84.8H29.8C27.2 84.8 22 85.9 20.2 83.5S18.4 77.2 18.1 74.4C17.6 70.8 17.2 67.3 16.7 63.7 15.9 57.5 15.1 51.3 14.1 45.2 14.1 45 14.1 45 14.2 45" fill="#ffffff" data-fill-palette-color="quaternary"></path><path d="M20.6 38.9C21.2 38.9 21.8 38.3 21.8 37.7 21.8 37 21.3 36.5 20.6 36.5 20 36.5 19.4 37.1 19.4 37.7S19.9 38.9 20.6 38.9" fill="#ffffff" data-fill-palette-color="quaternary"></path><path d="M26.6 36.4C27.2 36.4 27.8 35.8 27.8 35.2 27.8 34.5 27.3 34 26.6 34 26 34 25.4 34.6 25.4 35.2 25.4 35.9 25.9 36.4 26.6 36.4" fill="#ffffff" data-fill-palette-color="quaternary"></path><path d="M30.1 40.1C30.7 40.1 31.3 39.5 31.3 38.9 31.3 38.2 30.8 37.7 30.1 37.7 29.5 37.7 28.9 38.3 28.9 38.9S29.4 40.1 30.1 40.1" fill="#ffffff" data-fill-palette-color="quaternary"></path><path d="M27.6 65.7C30 65.2 32.1 62.9 34.3 61.7 36.8 60.3 39.5 59.3 42.3 58.8 43.2 58.6 43.9 58.2 44.4 59 45 59.9 44.2 60.5 43.7 61.3 42.9 62.6 42.1 64 41.4 65.3 40.3 67.5 38.7 70 38.5 72.5 38.4 74.2 38.8 75.8 40.3 76.7 42.3 78 44.7 76.9 46.7 76.2 52.6 74.1 58.2 71.3 63.4 68 65.8 66.5 63.6 62.6 61.1 64.1 58.4 65.8 49.3 70.5 47.6 71.2 46.8 71.5 44.1 73 43.4 72.8 42 72.3 43.7 69.9 44.2 68.9 44.9 67.5 49.5 60.4 49.1 57.9 47.7 48.9 27.5 58.7 26.2 64.3 26.1 65.3 26.8 65.9 27.6 65.7" fill="#ffffff" data-fill-palette-color="quaternary"></path></g></svg></g></svg></g></svg></g></svg></g><g></g></svg></g><defs></defs></svg><rect width="378.22385317893225" height="247.2" fill="none" stroke="none" visibility="hidden"></rect></g></svg></g></svg>